<mxfile host="app.diagrams.net" agent="Mozilla/5.0 (Windows NT 10.0; Win64; x64; rv:129.0) Gecko/20100101 Firefox/129.0" version="24.7.7">
  <diagram name="Página-1" id="iGeyq7KA9UmZfROnMJ7Q">
    <mxGraphModel dx="1674" dy="782" grid="1" gridSize="10" guides="1" tooltips="1" connect="1" arrows="1" fold="1" page="1" pageScale="1" pageWidth="827" pageHeight="1169" math="0" shadow="0">
      <root>
        <mxCell id="0" />
        <mxCell id="1" parent="0" />
        <mxCell id="pT81k1oBShLd_ITsZlLm-15" value="" style="html=1;whiteSpace=wrap;" vertex="1" parent="1">
          <mxGeometry x="200" y="510" width="240" height="210" as="geometry" />
        </mxCell>
        <mxCell id="pT81k1oBShLd_ITsZlLm-8" value="" style="html=1;whiteSpace=wrap;" vertex="1" parent="1">
          <mxGeometry x="200" y="40" width="240" height="400" as="geometry" />
        </mxCell>
        <mxCell id="pT81k1oBShLd_ITsZlLm-10" style="edgeStyle=orthogonalEdgeStyle;rounded=0;orthogonalLoop=1;jettySize=auto;html=1;exitX=0.5;exitY=0.5;exitDx=0;exitDy=0;exitPerimeter=0;entryX=0;entryY=0.5;entryDx=0;entryDy=0;" edge="1" parent="1" source="pT81k1oBShLd_ITsZlLm-1" target="pT81k1oBShLd_ITsZlLm-6">
          <mxGeometry relative="1" as="geometry" />
        </mxCell>
        <mxCell id="pT81k1oBShLd_ITsZlLm-11" style="edgeStyle=orthogonalEdgeStyle;rounded=0;orthogonalLoop=1;jettySize=auto;html=1;exitX=0.5;exitY=0.5;exitDx=0;exitDy=0;exitPerimeter=0;entryX=0;entryY=0.5;entryDx=0;entryDy=0;" edge="1" parent="1" source="pT81k1oBShLd_ITsZlLm-1" target="pT81k1oBShLd_ITsZlLm-5">
          <mxGeometry relative="1" as="geometry" />
        </mxCell>
        <mxCell id="pT81k1oBShLd_ITsZlLm-14" style="edgeStyle=orthogonalEdgeStyle;rounded=0;orthogonalLoop=1;jettySize=auto;html=1;exitX=0.5;exitY=0.5;exitDx=0;exitDy=0;exitPerimeter=0;entryX=0;entryY=0.5;entryDx=0;entryDy=0;" edge="1" parent="1" source="pT81k1oBShLd_ITsZlLm-1" target="pT81k1oBShLd_ITsZlLm-13">
          <mxGeometry relative="1" as="geometry" />
        </mxCell>
        <mxCell id="pT81k1oBShLd_ITsZlLm-1" value="&lt;div&gt;Responsaveis&lt;/div&gt;&lt;div&gt;&lt;br&gt;&lt;/div&gt;" style="shape=umlActor;verticalLabelPosition=bottom;verticalAlign=top;html=1;" vertex="1" parent="1">
          <mxGeometry x="120" y="120" width="30" height="60" as="geometry" />
        </mxCell>
        <mxCell id="pT81k1oBShLd_ITsZlLm-12" style="edgeStyle=orthogonalEdgeStyle;rounded=0;orthogonalLoop=1;jettySize=auto;html=1;exitX=0.5;exitY=0;exitDx=0;exitDy=0;exitPerimeter=0;" edge="1" parent="1" source="pT81k1oBShLd_ITsZlLm-3" target="pT81k1oBShLd_ITsZlLm-1">
          <mxGeometry relative="1" as="geometry" />
        </mxCell>
        <mxCell id="pT81k1oBShLd_ITsZlLm-3" value="&lt;div&gt;Profissionais&lt;/div&gt;&lt;div&gt;&lt;br&gt;&lt;/div&gt;" style="shape=umlActor;verticalLabelPosition=bottom;verticalAlign=top;html=1;" vertex="1" parent="1">
          <mxGeometry x="120" y="375" width="30" height="60" as="geometry" />
        </mxCell>
        <mxCell id="pT81k1oBShLd_ITsZlLm-19" style="edgeStyle=orthogonalEdgeStyle;rounded=0;orthogonalLoop=1;jettySize=auto;html=1;exitX=0.5;exitY=0.5;exitDx=0;exitDy=0;exitPerimeter=0;entryX=0;entryY=0.5;entryDx=0;entryDy=0;" edge="1" parent="1" source="pT81k1oBShLd_ITsZlLm-4" target="pT81k1oBShLd_ITsZlLm-16">
          <mxGeometry relative="1" as="geometry" />
        </mxCell>
        <mxCell id="pT81k1oBShLd_ITsZlLm-21" style="edgeStyle=orthogonalEdgeStyle;rounded=0;orthogonalLoop=1;jettySize=auto;html=1;exitX=0.5;exitY=0.5;exitDx=0;exitDy=0;exitPerimeter=0;entryX=0;entryY=0.5;entryDx=0;entryDy=0;" edge="1" parent="1" source="pT81k1oBShLd_ITsZlLm-4" target="pT81k1oBShLd_ITsZlLm-20">
          <mxGeometry relative="1" as="geometry" />
        </mxCell>
        <mxCell id="pT81k1oBShLd_ITsZlLm-22" style="edgeStyle=orthogonalEdgeStyle;rounded=0;orthogonalLoop=1;jettySize=auto;html=1;exitX=0.5;exitY=0.5;exitDx=0;exitDy=0;exitPerimeter=0;" edge="1" parent="1" source="pT81k1oBShLd_ITsZlLm-4">
          <mxGeometry relative="1" as="geometry">
            <mxPoint x="135" y="440" as="targetPoint" />
          </mxGeometry>
        </mxCell>
        <mxCell id="pT81k1oBShLd_ITsZlLm-4" value="&lt;div&gt;Secretaria&lt;/div&gt;&lt;div&gt;&lt;br&gt;&lt;/div&gt;" style="shape=umlActor;verticalLabelPosition=bottom;verticalAlign=top;html=1;" vertex="1" parent="1">
          <mxGeometry x="120" y="585" width="30" height="60" as="geometry" />
        </mxCell>
        <mxCell id="pT81k1oBShLd_ITsZlLm-5" value="&lt;div&gt;Agendar horarios no Sistema&lt;/div&gt;" style="ellipse;whiteSpace=wrap;html=1;" vertex="1" parent="1">
          <mxGeometry x="250" y="190" width="140" height="70" as="geometry" />
        </mxCell>
        <mxCell id="pT81k1oBShLd_ITsZlLm-6" value="Abrir o calendario de Agendas" style="ellipse;whiteSpace=wrap;html=1;" vertex="1" parent="1">
          <mxGeometry x="250" y="80" width="140" height="70" as="geometry" />
        </mxCell>
        <mxCell id="pT81k1oBShLd_ITsZlLm-13" value="&lt;div&gt;Visualizar confirmação de Agendamento&lt;/div&gt;" style="ellipse;whiteSpace=wrap;html=1;" vertex="1" parent="1">
          <mxGeometry x="250" y="300" width="140" height="70" as="geometry" />
        </mxCell>
        <mxCell id="pT81k1oBShLd_ITsZlLm-16" value="&lt;div&gt;Reprovar os Agendamento&lt;/div&gt;" style="ellipse;whiteSpace=wrap;html=1;" vertex="1" parent="1">
          <mxGeometry x="250" y="530" width="140" height="70" as="geometry" />
        </mxCell>
        <mxCell id="pT81k1oBShLd_ITsZlLm-20" value="&lt;div&gt;Aprovar os Agendamento&lt;/div&gt;" style="ellipse;whiteSpace=wrap;html=1;" vertex="1" parent="1">
          <mxGeometry x="250" y="630" width="140" height="70" as="geometry" />
        </mxCell>
      </root>
    </mxGraphModel>
  </diagram>
</mxfile>
